# File created by Blade
# Date/Time:  Wed Jan 21 17:10:37 2015
# Frame Rate: 120.000 fps
#------------------------------------------------------
:FULLY-SPECIFIED
:DEGREES
426
root 19.111742 3.417340 -12.144184 -234.003101 6.957347 -178.368790
Spine 53.189025 0.566713 1.349524
Head 10.783102 5.625389 -0.695620
LeftShoulder -8.233634 -20.960554 7.010136
LeftArm 0.454008 31.539939 -68.561106
LeftForeArm -31.425670 -0.000000 89.353798
LeftHand -19.013240 -0.000000 9.788433
LeftHandThumb1 -26.253704 0.000000 33.147579
RightShoulder -5.647231 -9.206950 1.176328
RightArm 15.373477 16.045012 45.047681
RightForeArm -27.789159 -0.000000 95.313180
RightHand -7.327346 -0.000000 -10.758404
RightHandThumb1 -24.326973 -0.000000 -32.862282
LeftUpLeg -39.597037 28.479189 -0.214232
LeftLeg -1.526082 -0.000000 0.000000
LeftFoot 22.553215 32.821182 3.022952
LeftToeBase 15.553593 -0.000000 -0.000000
RightUpLeg -96.628640 -8.087947 29.189953
RightLeg 135.885797 -0.000000 -0.000000
RightFoot -1.235857 -32.318173 -5.710586
RightToeBase 22.209689 -0.000000 -0.000000
427
root 19.103279 3.412985 -12.144009 -233.999147 6.904943 -178.354769
Spine 53.219834 0.566964 1.181478
Head 10.753170 5.591087 -0.592538
LeftShoulder -7.821190 -21.413872 6.972432
LeftArm 1.387205 32.522499 -68.563716
LeftForeArm -34.356441 0.000000 87.650665
LeftHand -19.013530 0.000000 9.303982
LeftHandThumb1 -26.253704 0.000000 33.147579
RightShoulder -5.374486 -8.733849 0.933350
RightArm 16.033238 17.171036 44.411373
RightForeArm -26.523846 0.000000 95.303875
RightHand -7.392170 -0.000000 -10.748705
RightHandThumb1 -24.326973 -0.000000 -32.862282
LeftUpLeg -39.215982 28.411216 -0.030708
LeftLeg -1.458649 -0.000000 0.000000
LeftFoot 22.384465 33.044850 2.816473
LeftToeBase 15.412538 -0.000000 -0.000000
RightUpLeg -96.816825 -8.259786 29.348741
RightLeg 135.737726 -0.000000 -0.000000
RightFoot -0.798759 -32.772181 -5.621073
RightToeBase 20.890637 -0.000000 -0.000000
428
root 19.098869 3.410176 -12.146512 -233.999939 6.850976 -178.409895
Spine 53.230987 0.660861 0.994014
Head 10.749816 5.444469 -0.461799
LeftShoulder -7.421724 -21.742473 6.936951
LeftArm 2.537929 33.563260 -68.456761
LeftForeArm -37.325838 0.000000 85.749214
LeftHand -19.010343 -0.000000 8.796292
LeftHandThumb1 -26.253704 0.000000 33.147579
RightShoulder -5.141092 -8.231276 0.662323
RightArm 16.727693 18.226798 43.740661
RightForeArm -24.977612 -0.000000 95.181166
RightHand -7.339930 -0.000000 -10.360314
RightHandThumb1 -24.326973 -0.000000 -32.862282
LeftUpLeg -38.858408 28.415860 0.114639
LeftLeg -1.308911 -0.000000 0.000000
LeftFoot 22.382990 33.286299 2.689203
LeftToeBase 15.397884 -0.000000 -0.000000
RightUpLeg -96.994670 -8.364688 29.548636
RightLeg 135.524659 -0.000000 -0.000000
RightFoot -0.352047 -33.517487 -5.482453
RightToeBase 19.931991 -0.000000 -0.000000
429
root 19.097171 3.402261 -12.146741 -233.949328 6.834294 -178.437730
Spine 53.196158 0.745014 0.873640
Head 10.735142 5.323862 -0.396034
LeftShoulder -7.012333 -22.181090 6.885253
LeftArm 3.539668 34.731268 -68.412308
LeftForeArm -39.998477 -0.000000 83.810658
LeftHand -19.005500 0.000000 7.965024
LeftHandThumb1 -26.253704 0.000000 33.147579
RightShoulder -4.893423 -7.907598 0.349209
RightArm 17.552892 19.321086 43.056858
RightForeArm -23.589408 -0.000000 94.955704
RightHand -7.398094 -0.000000 -10.103438
RightHandThumb1 -24.326973 -0.000000 -32.862282
LeftUpLeg -38.578491 28.295934 0.388928
LeftLeg -1.018926 -0.000000 0.000000
LeftFoot 22.805788 33.479387 3.044665
LeftToeBase 15.435614 -0.000000 -0.000000
RightUpLeg -97.238842 -8.459058 29.876696
RightLeg 135.244919 -0.000000 -0.000000
RightFoot 0.449268 -34.350421 -5.720227
RightToeBase 18.753516 -0.000000 -0.000000
430
root 19.089197 3.397883 -12.148728 -233.923628 6.800308 -178.434543
Spine 53.198893 0.768347 0.797440
Head 10.720851 5.221925 -0.402564
LeftShoulder -6.618674 -22.541226 6.813763
LeftArm 4.644018 35.963672 -68.342439
LeftForeArm -42.455073 -0.000000 81.778359
LeftHand -18.873158 0.000000 7.082581
LeftHandThumb1 -26.253704 0.000000 33.147579
RightShoulder -4.563068 -7.295818 -0.123005
RightArm 18.055781 20.218880 42.263376
RightForeArm -22.172884 -0.000000 94.674316
RightHand -7.291073 -0.000000 -9.365691
RightHandThumb1 -24.326973 -0.000000 -32.862282
LeftUpLeg -38.387877 28.192035 0.557465
LeftLeg -0.756436 -0.000000 0.000000
LeftFoot 24.488191 33.721219 4.503608
LeftToeBase 14.845360 -0.000000 -0.000000
RightUpLeg -97.502816 -8.630807 30.212000
RightLeg 134.946664 -0.000000 -0.000000
RightFoot 1.252507 -35.093803 -5.681529
RightToeBase 16.665912 -0.000000 -0.000000
431
root 19.081283 3.391616 -12.152816 -233.881774 6.772138 -178.497923
Spine 53.160120 0.873438 0.692646
Head 10.728536 5.083191 -0.374250
LeftShoulder -6.169968 -22.914750 6.716875
LeftArm 5.694216 37.116709 -68.341202
LeftForeArm -44.519019 -0.000000 79.748555
LeftHand -19.003110 -0.000000 6.090502
LeftHandThumb1 -26.253704 0.000000 33.147579
RightShoulder -4.189377 -6.806496 -0.591430
RightArm 18.518035 21.134998 41.267226
RightForeArm -20.549170 -0.000000 94.408391
RightHand -7.300789 -0.000000 -8.429337
RightHandThumb1 -24.326973 -0.000000 -32.862282
LeftUpLeg -38.406159 28.254079 0.475272
LeftLeg -0.735875 -0.000000 0.000000
LeftFoot 27.174409 34.999416 5.801909
LeftToeBase 14.442287 -0.000000 -0.000000
RightUpLeg -97.802576 -8.760233 30.532257
RightLeg 134.598799 -0.000000 -0.000000
RightFoot 2.120904 -35.821124 -5.833500
RightToeBase 15.128245 -0.000000 -0.000000
432
root 19.083913 3.387611 -12.151167 -233.814989 6.822968 -178.493456
Spine 53.114438 0.954857 0.706310
Head 10.734085 4.980843 -0.382614
LeftShoulder -5.741082 -23.317064 6.577106
LeftArm 6.829512 38.433573 -68.227622
LeftForeArm -45.950932 -0.000000 77.663741
LeftHand -19.275208 -0.000000 4.959483
LeftHandThumb1 -26.253704 0.000000 33.147579
RightShoulder -3.810240 -6.497308 -1.101523
RightArm 19.153571 22.076554 40.283941
RightForeArm -19.355246 -0.000000 93.911052
RightHand -7.149937 -0.000000 -7.467372
RightHandThumb1 -24.326973 -0.000000 -32.862282
LeftUpLeg -38.668074 28.535283 0.319198
LeftLeg -0.696411 -0.000000 0.000000
LeftFoot 29.861058 36.101125 6.696875
LeftToeBase 14.981951 -0.000000 -0.000000
RightUpLeg -98.093523 -8.891280 31.036457
RightLeg 134.154893 -0.000000 -0.000000
RightFoot 3.162916 -36.372277 -5.872448
RightToeBase 12.692286 -0.000000 -0.000000
433
root 19.056590 3.407808 -12.148529 -233.987787 6.632116 -178.592807
Spine 53.392947 0.986199 0.475026
Head 10.626279 4.828218 -0.415778
LeftShoulder -5.318977 -23.756462 6.404067
LeftArm 8.095917 39.795412 -67.974446
LeftForeArm -47.134324 -0.000000 75.581049
LeftHand -19.345028 -0.000000 3.990726
LeftHandThumb1 -26.253704 0.000000 33.147579
RightShoulder -3.333654 -6.040203 -1.715375
RightArm 19.631101 23.015512 39.371285
RightForeArm -18.241571 -0.000000 93.375333
RightHand -6.977496 -0.000000 -6.251499
RightHandThumb1 -24.326973 -0.000000 -32.862282
LeftUpLeg -38.651207 28.898513 -0.152435
LeftLeg -0.754659 -0.000000 0.000000
LeftFoot 31.607230 36.677077 7.319462
LeftToeBase 17.458254 -0.000000 -0.000000
RightUpLeg -98.270768 -9.338292 31.221511
RightLeg 133.713936 -0.000000 -0.000000
RightFoot 4.149777 -36.562347 -5.997229
RightToeBase 11.277893 -0.000000 -0.000000
434
root 19.037496 3.414731 -12.148164 -234.044758 6.457726 -178.909945
Spine 53.472625 1.314817 0.145543
Head 10.603020 4.616732 -0.354840
LeftShoulder -4.855892 -24.127750 6.268362
LeftArm 9.472112 41.237212 -67.635193
LeftForeArm -48.013517 0.000000 73.513318
LeftHand -19.480894 -0.000000 3.198376
LeftHandThumb1 -26.253704 0.000000 33.147579
RightShoulder -2.942018 -5.643468 -2.221459
RightArm 20.100823 23.733805 38.236039
RightForeArm -17.276608 -0.000000 92.667493
RightHand -6.712510 0.000000 -5.346616
RightHandThumb1 -24.326973 -0.000000 -32.862282
LeftUpLeg -38.867652 29.511673 -0.838971
LeftLeg -0.657301 -0.000000 0.000000
LeftFoot 32.296040 36.658634 7.560630
LeftToeBase 19.519142 -0.000000 -0.000000
RightUpLeg -98.581591 -9.506502 31.357935
RightLeg 133.233233 -0.000000 -0.000000
RightFoot 5.259962 -36.639343 -6.093420
RightToeBase 10.063872 -0.000000 -0.000000
435
root 19.032529 3.425340 -12.142176 -234.151581 6.404381 -179.194630
Spine 53.643104 1.690561 -0.033272
Head 10.530010 4.375090 -0.349090
LeftShoulder -4.293280 -24.579494 6.060639
LeftArm 10.756604 42.608535 -67.283713
LeftForeArm -48.580684 0.000000 71.517203
LeftHand -19.651068 -0.000000 2.591550
LeftHandThumb1 -26.253704 0.000000 33.147579
RightShoulder -2.619063 -5.438869 -2.852925
RightArm 20.775740 24.476663 37.268958
RightForeArm -16.454461 -0.000000 91.808966
RightHand -6.433963 -0.000000 -4.389358
RightHandThumb1 -24.326973 -0.000000 -32.862282
LeftUpLeg -39.009501 30.120710 -1.331767
LeftLeg -0.565714 -0.000000 0.000000
LeftFoot 32.025362 36.348432 7.291623
LeftToeBase 21.306917 -0.000000 -0.000000
RightUpLeg -98.776295 -9.600041 31.661109
RightLeg 132.613709 -0.000000 -0.000000
RightFoot 6.623014 -36.624071 -6.747302
RightToeBase 9.194947 -0.000000 -0.000000
436
root 19.034115 3.442923 -12.132639 -234.290925 6.432200 -179.467157
Spine 53.875536 2.072766 -0.097253
Head 10.423821 4.190717 -0.448708
LeftShoulder -3.719234 -25.039454 5.733405
LeftArm 12.164612 44.036233 -66.717286
LeftForeArm -49.022573 0.000000 69.598628
LeftHand -20.006982 -0.000000 1.942559
LeftHandThumb1 -26.253704 0.000000 33.147579
RightShoulder -2.367127 -5.191064 -3.515214
RightArm 21.474997 24.906761 36.081426
RightForeArm -15.340701 -0.000000 90.770700
RightHand -6.246146 -0.000000 -3.958754
RightHandThumb1 -24.326973 -0.000000 -32.862282
LeftUpLeg -39.072485 30.763893 -1.717124
LeftLeg -0.511298 -0.000000 0.000000
LeftFoot 30.867055 35.912653 6.259063
LeftToeBase 21.421584 -0.000000 -0.000000
RightUpLeg -98.886488 -9.704276 32.062665
RightLeg 131.928606 -0.000000 -0.000000
RightFoot 7.788322 -36.382708 -7.343815
RightToeBase 8.511389 -0.000000 -0.000000
